<svg width="130" height="40" viewBox="0 0 130 40" fill="none" xmlns="http://www.w3.org/2000/svg">
<path fill-rule="evenodd" clip-rule="evenodd" d="M126.433 0.0837104C125.575 -0.085938 124.685 0.00351583 123.877 0.340742C123.069 0.677965 122.379 1.24775 121.895 1.97791C121.411 2.70805 121.153 3.56576 121.156 4.44242C121.159 5.61524 121.626 6.73906 122.455 7.56742C123.284 8.39579 124.407 8.86106 125.578 8.86106C126.453 8.86105 127.309 8.60084 128.036 8.11341C128.764 7.62599 129.33 6.93331 129.665 6.1231C129.999 5.3129 130.086 4.42156 129.914 3.5619C129.743 2.70224 129.32 1.91283 128.701 1.29365C128.081 0.674466 127.292 0.253358 126.433 0.0837104ZM123.116 1.97694C123.771 1.32318 124.656 0.953568 125.58 0.947625C126.271 0.949131 126.945 1.15572 127.519 1.54135C128.093 1.92708 128.539 2.47464 128.803 3.11485C129.066 3.75508 129.134 4.45916 128.997 5.13804C128.861 5.81691 128.527 6.44002 128.038 6.92863C127.548 7.41723 126.925 7.74938 126.248 7.88315C125.57 8.01693 124.868 7.94634 124.23 7.68031C123.592 7.41426 123.048 6.96469 122.665 6.38834C122.282 5.81213 122.078 5.1351 122.079 4.44282C122.089 3.51632 122.461 2.63073 123.116 1.97694ZM125.883 2.09415H124.023V6.88245H125.017V4.99834H125.666L126.678 6.88245H127.818L126.653 4.8681C126.895 4.78412 127.108 4.62832 127.263 4.41955C127.449 4.1665 127.537 3.85345 127.508 3.54026C127.507 3.09957 127.376 2.7322 127.096 2.47629C126.816 2.2209 126.407 2.09415 125.883 2.09415ZM124.948 4.07277V3.01971H125.883C126.159 3.01971 126.33 3.06567 126.432 3.14421C126.525 3.21683 126.582 3.33568 126.582 3.54623C126.582 3.74041 126.524 3.8619 126.426 3.93949C126.322 4.02182 126.149 4.07277 125.883 4.07277H124.948ZM0.160828 1.76297H59.0456V0.124817H0.160828V1.76297ZM0.160828 7.66476H17.8263V6.02661H0.160828V7.66476ZM17.8263 13.5615H0.160889V11.9233H17.8263V13.5615ZM0.160828 19.4638H17.8263V17.8256H0.160828V19.4638ZM17.8263 25.3657H0.160889V23.7275H17.8263V25.3657ZM70.8273 1.76297H88.4928V0.124817H70.8273V1.76297ZM88.4928 7.66476H70.8273V6.02661H88.4928V7.66476ZM70.8274 13.5615H88.4928V11.9233H70.8274V13.5615ZM88.4928 19.4638H70.8273V17.8256H88.4928V19.4638ZM70.8274 25.3657H88.4928V23.7275H70.8274V25.3657ZM59.0473 7.66476H41.3818V6.02661H59.0473V7.66476ZM41.3818 13.5615H59.0473V11.9233H41.3818V13.5615ZM129.708 19.4638H112.043V17.8256H129.708V19.4638ZM112.042 25.3657H129.708V23.7275H112.042V25.3657ZM102.875 39.8161C102.949 39.7717 103.019 39.7202 103.082 39.6625L103.089 39.9493L103.75 39.9506V37.8906H102.262V38.546H103.027C103.018 38.6099 103.001 38.6727 102.978 38.7332C102.935 38.8431 102.871 38.9433 102.788 39.0275C102.706 39.1117 102.607 39.1782 102.498 39.2231C102.39 39.2679 102.273 39.2901 102.155 39.2883H102.153C101.803 39.2883 101.57 39.1528 101.419 38.9453C101.263 38.7305 101.184 38.4228 101.184 38.0688C101.184 37.736 101.263 37.439 101.418 37.2297C101.568 37.0269 101.799 36.8927 102.142 36.8927L102.146 36.8926C102.331 36.888 102.512 36.9415 102.665 37.0456C102.818 37.1497 102.934 37.2991 102.997 37.4729L103.056 37.6327L103.743 37.3502L103.684 37.2002C103.564 36.8914 103.351 36.6277 103.074 36.4456C102.798 36.264 102.473 36.1724 102.144 36.1834C101.576 36.1842 101.145 36.4035 100.86 36.7626C100.579 37.1173 100.451 37.5931 100.451 38.0924C100.451 38.5922 100.58 39.0674 100.863 39.4214C101.15 39.7794 101.581 39.9978 102.148 39.9988C102.403 40.0108 102.656 39.9473 102.875 39.8161ZM2.62339 36.4457C2.34769 36.2642 2.0227 36.1726 1.69302 36.1834C1.12456 36.1841 0.693816 36.4034 0.408861 36.7626C0.12751 37.1173 0 37.5932 0 38.0924C0 38.592 0.129003 39.0673 0.411726 39.4213C0.697946 39.7796 1.12969 39.9981 1.69761 39.9988C2.02802 40.0095 2.35366 39.9171 2.62945 39.7344C2.90602 39.5511 3.1187 39.2861 3.23802 38.9761L3.29563 38.8264L2.60052 38.5409L2.54783 38.7122C2.49359 38.8887 2.38145 39.0416 2.22963 39.1462C2.07781 39.2508 1.8952 39.3006 1.71136 39.2883H1.70038C1.35105 39.2883 1.11858 39.1528 0.967872 38.9453C0.811869 38.7305 0.732662 38.4228 0.732662 38.0688C0.732662 37.7357 0.8112 37.4388 0.965915 37.2296C1.11568 37.027 1.3465 36.8926 1.69123 36.8926H1.69931L1.70734 36.8918C1.89095 36.8736 2.0751 36.9206 2.22759 37.0247C2.38008 37.1288 2.4912 37.2833 2.54151 37.4612L2.59137 37.6374L3.29255 37.3504L3.2338 37.2001C3.11315 36.8914 2.89988 36.6278 2.62339 36.4457ZM15.9213 36.2382H13.396V39.9507H15.9213V39.2454H14.1352V38.4395H15.7106V37.7487H14.1352V36.9284H15.9213V36.2382ZM26.9714 36.2382H26.1647V39.9507H26.9026V37.6111L28.0879 39.9507H28.8955V36.2382H28.1622V38.5795L26.9714 36.2382ZM41.8721 36.2382H38.8724V36.914H40.003V39.9507H40.7415V36.914H41.8721V36.2382ZM54.3711 36.2382H51.8465V39.9507H54.3711V39.2454H52.5843V38.4395H54.1611V37.7487H52.5843V36.9284H54.3711V36.2382ZM66.2153 36.2863C66.0679 36.2393 65.9126 36.223 65.7588 36.2384H64.6152V39.9508H65.3544V38.443H65.6093L66.4763 39.9508H67.3323L66.3756 38.3213C66.5281 38.2554 66.6636 38.1535 66.7699 38.0228C66.9238 37.8336 67.0066 37.5959 67.0038 37.3518C67.0016 37.1939 66.9665 37.0381 66.9008 36.8945C66.8351 36.7509 66.7401 36.6226 66.6221 36.5179C66.5041 36.4132 66.3655 36.3343 66.2153 36.2863ZM65.7965 36.9336C65.8558 36.9255 65.9161 36.9303 65.9734 36.9475C66.0307 36.9647 66.0836 36.994 66.1287 37.0335C66.1737 37.0729 66.2097 37.1216 66.2344 37.1762C66.2591 37.2306 66.2718 37.2897 66.2718 37.3494C66.2713 37.4042 66.2595 37.4583 66.2373 37.5083C66.215 37.5585 66.1826 37.6037 66.1422 37.6409C66.1018 37.6781 66.0541 37.7066 66.0022 37.7245C65.9504 37.7425 65.8954 37.7496 65.8407 37.7454L65.8344 37.7449H65.3602V36.9351H65.7855L65.7965 36.9336ZM77.994 36.2382H77.2561V39.9507H79.438V39.2454H77.994V36.2382ZM90.2471 36.2382H89.5086V39.9507H90.2471V36.2382ZM114.814 36.2382H114.075V39.9507H114.814V38.4395H116.16V39.9507H116.898V36.2382H116.16V37.7461H114.814V36.2382ZM129.872 36.2382H126.871V36.914H128.002V39.9507H128.741V36.914H129.872V36.2382ZM0.160828 31.2622H129.707V29.624H0.160828V31.2622Z" fill="#5026B0"/>
</svg>
